<svg id="Livello_1" data-name="Livello 1" xmlns="http://www.w3.org/2000/svg" viewBox="0 0 187.55 39.56"><defs><style>.cls-1{fill:none;stroke:#fff;stroke-miterlimit:10;stroke-width:1.5px;}.cls-2{fill:#fff;}</style></defs><title>social-icons</title><path class="cls-1" d="M167.77.75h0a19,19,0,0,1,19,19h0a19,19,0,0,1-19,19h0a19,19,0,0,1-19-19h0A19,19,0,0,1,167.77.75Z"/><rect class="cls-2" x="161.21" y="16.25" width="3.05" height="9.86"/><path class="cls-2" d="M162.72,15a1.82,1.82,0,1,0-1.81-1.83v0A1.81,1.81,0,0,0,162.7,15Z"/><path class="cls-2" d="M169.14,20.94c0-1.39.63-2.21,1.86-2.21s1.66.79,1.66,2.21v5.17h3V19.87c0-2.64-1.49-3.92-3.58-3.92a3.42,3.42,0,0,0-3,1.63V16.25h-2.93v9.86h2.93Z"/><path class="cls-1" d="M118.81,38.81h0a19,19,0,0,1-19-19h0a19,19,0,0,1,19-19h0a19,19,0,0,1,19,19h0A19,19,0,0,1,118.81,38.81Z"/><path class="cls-2" d="M111.36,24.46a8.68,8.68,0,0,0,13.37-7.72,6.21,6.21,0,0,0,1.53-1.58,6,6,0,0,1-1.76.48A3,3,0,0,0,125.84,14a6.18,6.18,0,0,1-1.94.74,3.06,3.06,0,0,0-5.21,2.79,8.7,8.7,0,0,1-6.3-3.2,3.07,3.07,0,0,0,1,4.09A3.09,3.09,0,0,1,112,18a3.08,3.08,0,0,0,2.42,3,3.06,3.06,0,0,1-1.38.05,3,3,0,0,0,2.85,2.13A6.16,6.16,0,0,1,111.36,24.46Z"/><path class="cls-1" d="M69.31.75h0a19,19,0,0,1,19,19h0a19,19,0,0,1-19,19h0a19,19,0,0,1-19-19h0A19,19,0,0,1,69.31.75Z"/><path class="cls-2" d="M71.29,19.37h-6.4V21.2h4.34A4.22,4.22,0,0,1,65,24.8a5,5,0,1,1,3.41-8.7l1.42-1.22A6.88,6.88,0,1,0,65,26.66a6.23,6.23,0,0,0,6.3-6.16c0-.14,0-.28,0-.42Z"/><polygon class="cls-2" points="80.49 19.44 77.84 19.44 77.84 16.8 76.16 16.8 76.16 19.44 73.52 19.44 73.52 21.13 76.16 21.13 76.16 23.77 77.84 23.77 77.84 21.13 80.49 21.13 80.49 19.44"/><path class="cls-1" d="M19.78.75h0a19,19,0,0,1,19,19h0a19,19,0,0,1-19,19h0a19,19,0,0,1-19-19h0A19,19,0,0,1,19.78.75Z"/><path class="cls-2" d="M17.64,28.26h3.42V19.71h2.38l.26-2.87H21.06V15.21c0-.67.13-.94.79-.94H23.7v-3H21.33c-2.54,0-3.69,1.12-3.69,3.26v2.28H15.87v2.9h1.77Z"/></svg>